<?xml version="1.0" encoding="UTF-8" standalone="no"?>
<!-- Created with Inkscape (http://www.inkscape.org/) -->

<svg
   xmlns:dc="http://purl.org/dc/elements/1.1/"
   xmlns:cc="http://creativecommons.org/ns#"
   xmlns:rdf="http://www.w3.org/1999/02/22-rdf-syntax-ns#"
   xmlns:svg="http://www.w3.org/2000/svg"
   xmlns="http://www.w3.org/2000/svg"
   xmlns:sodipodi="http://sodipodi.sourceforge.net/DTD/sodipodi-0.dtd"
   xmlns:inkscape="http://www.inkscape.org/namespaces/inkscape"
   sodipodi:docname="kawasaki.svg"
   id="svg8"
   version="1.1"
   viewBox="0 0 86 64"
   height="64mm"
   width="86mm"
   inkscape:version="0.92.3 (2405546, 2018-03-11)">
  <sodipodi:namedview
     inkscape:window-maximized="1"
     inkscape:window-y="-8"
     inkscape:window-x="-8"
     inkscape:window-height="1017"
     inkscape:window-width="1920"
     showgrid="false"
     inkscape:current-layer="layer1"
     inkscape:document-units="mm"
     inkscape:cy="221.39352"
     inkscape:cx="348.55133"
     inkscape:zoom="4.9715503"
     inkscape:pageshadow="2"
     inkscape:pageopacity="0.0"
     borderopacity="1.0"
     bordercolor="#666666"
     pagecolor="#ffffff"
     id="base" />
  <defs
     id="defs2" />
  <metadata
     id="metadata5">
    <rdf:RDF>
      <cc:Work
         rdf:about="">
        <dc:format>image/svg+xml</dc:format>
        <dc:type
           rdf:resource="http://purl.org/dc/dcmitype/StillImage" />
        <dc:title></dc:title>
      </cc:Work>
    </rdf:RDF>
  </metadata>
  <g
     style="display:inline"
     inkscape:label="Layer 1"
     inkscape:groupmode="layer"
     id="layer1"
     transform="translate(0,-233)">
    <g
       id="g130898"
       transform="translate(-7.8928937,32.432056)">
      <g
         id="g131015" />
      <g
         id="g133976">
        <path
           id="path133974"
           style="fill:none;stroke:#000000;stroke-width:1"
           d="m 23.44336,224.4412 1.194074,-1.19407 1.193314,-1.19332 m 2.398045,0.006 -1.200748,1.20075 -1.199601,1.1996 -1.200063,1.20006 -1.200117,1.20012 m -0.01456,2.41872 1.202409,-1.20241 1.203219,-1.20322 1.202943,-1.20294 1.202436,-1.20244 1.203176,-1.20317 1.203044,-1.20305 m 2.402214,0.002 -1.203483,1.20349 -1.204534,1.20453 -1.203608,1.20361 -1.204335,1.20433 -1.20436,1.20436 -1.203855,1.20386 -1.203938,1.20393 -1.204521,1.20453 m -0.01278,2.41695 1.204482,-1.20448 1.204682,-1.20468 1.204762,-1.20477 1.204873,-1.20487 1.204547,-1.20455 1.204992,-1.20499 1.205286,-1.20529 1.204878,-1.20487 1.204454,-1.20446 1.204941,-1.20494 m 2.404802,-6.4e-4 -1.205589,1.20559 -1.205558,1.20556 -1.205838,1.20584 -1.205518,1.20552 -1.205402,1.2054 -1.204775,1.20477 -1.206039,1.20604 -1.205804,1.20581 -1.204625,1.20462 -1.205683,1.20568 -1.205048,1.20505 -1.205639,1.20564 m 0.225881,2.17828 1.24966,-1.24966 1.249627,-1.24963 1.249918,-1.24991 1.249586,-1.24959 1.249466,-1.24947 1.248816,-1.24881 1.250126,-1.25013 1.249882,-1.24988 1.248662,-1.24866 1.249756,-1.24976 1.249099,-1.2491 1.249712,-1.24971 m -0.0084,2.41254 -1.256945,1.25695 -1.257154,1.25715 -1.257237,1.25724 -1.257353,1.25736 -1.257012,1.25701 -1.257477,1.25748 -1.257784,1.25778 -1.257358,1.25736 -1.256915,1.25691 -1.257424,1.25743 m 2.414658,-0.0105 1.268152,-1.26815 1.269259,-1.26926 1.268283,-1.26828 1.26905,-1.26905 1.269076,-1.26907 1.268544,-1.26855 1.26863,-1.26863 1.269245,-1.26924 m 0.302801,2.10135 -1.164996,1.165 -1.164694,1.1647 -1.165053,1.16505 -1.164756,1.16475 -1.164755,1.16476 -1.16391,1.16391 -1.165398,1.1654 m 8.014954,-5.61079 -1.129014,1.12901 -1.129593,1.1296 -1.128593,1.12859 -1.129576,1.12957 -1.1285,1.1285 m 5.66762,-3.26345 -1.098669,1.09867 -1.098295,1.09829 -1.098568,1.09857 m 3.358574,-0.95441 -1.025667,1.02567 m 13.197916,-8.38959 1.332908,-0.82231 m 9.741013,-7.84745 -1.146447,1.14644 -1.147449,1.14745 m -3.069764,3.6732 -1.518148,0.91471 -1.14688,1.14688 -1.147437,1.14744 m 1.911851,0.49232 1.201083,-1.20108 1.202131,-1.20214 1.201208,-1.2012 1.201934,-1.20194 1.201957,-1.20196 1.201454,-1.20145 1.201536,-1.20154 1.202119,-1.20212 m 2.338687,0.0655 -1.266874,1.26687 -1.267981,1.26799 -1.267006,1.267 -1.267773,1.26777 -1.267797,1.2678 -1.267267,1.26727 -1.267353,1.26735 -1.267967,1.26797 m 1.574575,0.82959 1.223788,-1.22379 1.223731,-1.22373 1.223593,-1.22359 1.224376,-1.22438 1.223248,-1.22325 1.223087,-1.22309 1.224014,-1.22401 1.223585,-1.22358 1.223686,-1.22369 m 2.426911,-0.0228 -1.200507,1.20051 -1.200707,1.20071 -1.200786,1.20079 -1.200898,1.20089 -1.200571,1.20058 -1.201017,1.20101 -1.201308,1.20131 -1.200902,1.2009 -1.201802,1.20181 -1.200331,1.20033 m 0.8783,1.52586 1.227917,-1.22792 1.227402,-1.2274 1.227782,-1.22778 1.227708,-1.22771 1.228038,-1.22804 1.228025,-1.22802 1.227822,-1.22782 1.228085,-1.22809 1.227499,-1.2275 1.228071,-1.22806 1.228059,-1.22806 m 2.406959,-0.003 -1.218902,1.2189 -1.217906,1.21791 -1.218893,1.21889 -1.218862,1.21886 -1.217954,1.21795 -1.218041,1.21805 -1.218271,1.21827 -1.217826,1.21782 -1.217785,1.21779 -1.218504,1.2185 -1.219029,1.21903 -1.217724,1.21773 -1.21788,1.21787 m 12.12602,-9.72186 1.213798,-1.21379 1.21352,-1.21352 1.213008,-1.21301 1.213756,-1.21376 1.21362,-1.21362 m -9.957603,9.95761 -1.180972,1.18097 -1.181766,1.18177 -1.181496,1.18149 -1.180997,1.181 -1.181725,1.18173 -1.181594,1.18159 m 14.746179,-12.83518 1.376207,-1.33622 m -7.313132,7.76631 -1.264147,1.26415 -1.264795,1.26479 -1.263675,1.26368 -1.264776,1.26477 -1.263572,1.26357 m 2.309475,0.0947 1.16985,-1.16985 1.170451,-1.17045 1.169414,-1.16941 1.170433,-1.17044 1.169318,-1.16931 m 1.549649,0.85451 -1.233696,1.2337 -1.232516,1.23251 -1.232992,1.23299 -1.233046,1.23305 m 2.251327,0.15283 1.080583,-1.08058 1.07955,-1.07955 1.079966,-1.07997 1.079309,-1.07931 m 1.316667,1.0875 -1.078374,1.07838 -1.078005,1.078 -1.078274,1.07828 m 2.344051,0.0601 1.016968,-1.01697 1.01632,-1.01632 m -20.510949,3.0508 0.875906,-1.03963 0.561793,-0.79799 0.383936,-1.24849 -0.119564,-0.95855 -0.738149,-1.01004 -1.030096,-0.72928 -1.113321,-0.60097 -1.236949,-0.5572 -1.270635,-0.47389 -1.294413,-0.40665 -1.310363,-0.34973 -1.323186,-0.30072 -1.331633,-0.2569 -1.339311,-0.21745 -1.344662,-0.18095 -1.349108,-0.14685 -1.06067,-0.0947 -1.062063,-0.0806 -1.06442,-0.0642 -1.469319,-7e-4 -0.0043,1.1562 -0.0043,1.15594 -0.0043,1.1552 -0.0043,1.15591 -0.0043,1.1562 -0.0043,1.15594 -0.0043,1.1552 -0.0043,1.15591 H 38.580873 37.317947 36.054188 34.79145 33.527546 32.263137 31.00069 29.738484 28.475551 27.211785 25.949041 24.68513 23.420714 22.15826 l 0.007,-1.31443 0.007,-1.31521 0.007,-1.31477 0.007,-1.31509 0.007,-1.31392 0.0078,-1.36479 0.0086,-1.36457 0.0094,-1.36447 0.01023,-1.36299 0.0112,-1.36463 0.01252,-1.36358 0.01529,-1.36408 0.01333,-0.9919 0.01334,-0.99284 0.01332,-0.99095 h 1.251557 1.252278 1.253103 1.252091 1.253248 1.253748 1.251803 1.251557 1.252277 1.253103 1.252091 1.253247 1.253748 1.251802 v 1.06585 1.06561 1.06493 1.06558 l 7.85e-4,1.08562 0.0035,1.08518 0.01039,1.08473 0.07129,1.07774 1.059144,0.19084 1.392277,0.0922 1.397179,0.0271 1.39599,-0.0128 1.39422,-0.0726 1.292467,-0.15557 1.284287,-0.21355 1.27443,-0.27135 1.260894,-0.32905 1.244422,-0.38725 1.222692,-0.44568 1.199517,-0.50631 1.171641,-0.56885 0.978239,-0.57729 0.822126,-0.77588 0.429871,-1.0435 -0.03871,-1.33378 -0.434495,-1.06394 -0.872292,-1.28251 h 1.295541 1.296279 1.295942 1.295039 1.296191 1.296236 1.295335 1.297023 1.29567 l 1.297915,4e-5 1.298443,1.5e-4 1.297236,3.7e-4 1.298133,7.4e-4 1.297599,0.001 1.297904,0.003 1.298389,0.005 1.299632,0.0115 1.364417,-0.0337 -0.408656,1.60778 -0.563544,1.49279 -0.670183,1.16205 -0.684383,0.85099 -0.759616,0.78585 -0.833119,0.70828 -1.148875,0.72363 -1.194389,0.64823 -1.225344,0.5893 -1.11926,0.4933 -1.181968,0.48447 -1.191131,0.39496 1.379907,0.51855 1.203641,0.41609 1.184736,0.46973 1.150188,0.54495 1.173492,0.65009 1.106123,0.75917 1.001872,0.89185 0.862225,1.02606 0.71227,1.1349 0.445471,0.96038 0.357589,0.9945 0.319082,1.20574 H 79.44328 78.152967 76.862989 75.57391 74.283685 72.993414 71.70404 70.412986 69.123279 67.8337 66.543387 65.253409 63.96433 62.674105 61.383834 60.09446 58.803406"
           inkscape:connector-curvature="0"
           sodipodi:nodetypes="ccccccccccccccccccccccccccccccccccccccccccccccccccccccccccccccccccccccccccccccccccccccccccccccccccccccccccccccccccccccccccccccccccccccccccccccccccccccccccccccccccccccccccccccccccccccccccccccccccccccccccccccccccccccccccccccccccccccccccccccccccccccccccccccccccccccccccccccccccccccccccccccccccccccccccccccccccccccccccccccccccccccccccccccccccccccccccccccccccccccccccccccccccccccccc" />
      </g>
    </g>
    <g
       gcodetools="Gcodetools orientation group"
       transform="translate(0,233)"
       id="g131169">
      <g
         gcodetools="Gcodetools orientation point (2 points)"
         id="g131159">
        <path
           inkscape:connector-curvature="0"
           d="M 0,64 2.9375,57.65625 3.75,59.5625 10.593749,52.718751 v 0 l 0.6875,0.6875 -6.8437504,6.84375 1.90625,0.8125 z"
           gcodetools="Gcodetools orientation point arrow"
           style="fill:#000000;stroke:none"
           id="path131153" />
        <text
           gcodetools="Gcodetools orientation point text"
           style="font-style:normal;font-variant:normal;font-weight:normal;font-stretch:normal;font-size:10px;font-family:'DejaVu Sans';fill:#000000;fill-opacity:1;stroke:none"
           x="10"
           y="54"
           xml:space="preserve"
           id="text131157"><tspan
             x="10"
             y="54"
             sodipodi:role="line"
             id="tspan131155">(0.0; 0.0; 1.0)</tspan></text>
      </g>
      <g
         gcodetools="Gcodetools orientation point (2 points)"
         id="g131167">
        <path
           inkscape:connector-curvature="0"
           d="m 100,64 2.9375,-6.34375 0.8125,1.90625 6.84375,-6.843749 v 0 l 0.6875,0.6875 -6.84375,6.84375 1.90625,0.8125 z"
           gcodetools="Gcodetools orientation point arrow"
           style="fill:#000000;stroke:none"
           id="path131161" />
        <text
           gcodetools="Gcodetools orientation point text"
           style="font-style:normal;font-variant:normal;font-weight:normal;font-stretch:normal;font-size:10px;font-family:'DejaVu Sans';fill:#000000;fill-opacity:1;stroke:none"
           x="110"
           y="54"
           xml:space="preserve"
           id="text131165"><tspan
             x="110"
             y="54"
             sodipodi:role="line"
             id="tspan131163">(100.0; 0.0; 0.0)</tspan></text>
      </g>
    </g>
    <g
       id="g154245"
       transform="matrix(0.26458333,0,0,0.26458333,47.331079,219.72832)">
      <g
         id="Layer_1">
        <g
           id="g154214">
          <g
             id="g154184" />
          <g
             id="g154188" />
          <g
             id="g154192">
            <g
               id="g154445">
              <path
                 id="path154190"
                 d="m 157.46408,23.395724 c 2.71105,0 5.42207,0.22592 8.13311,0.67776 L 182.76709,6.903586 C 174.8599,3.966632 166.50086,2.385193 157.46408,2.385193 c -37.05083,0 -67.775905,27.336285 -72.972057,63.031598 H 66.644366 l -15.36254,21.010534 h 33.210197 c 2.711035,20.106865 13.555186,37.502685 28.917717,49.024585 l 15.13661,-15.13661 c -14.45885,-9.48864 -23.94747,-25.528935 -23.94747,-44.054367 0,-29.143639 23.72156,-52.865209 52.8652,-52.865209 z m 106.40819,42.021067 h -33.2102 C 227.7251,45.761775 217.10688,28.591879 201.97027,17.295893 l -15.13664,15.13662 c 14.23296,9.488627 23.49565,25.528929 23.49565,44.054344 0,29.143653 -23.72156,52.865223 -52.8652,52.865223 -2.48512,0 -5.19616,-0.22592 -7.45534,-0.67776 l -17.16991,17.16989 c 7.68127,2.71105 16.0403,4.29248 24.85118,4.29248 37.27675,0 68.22774,-27.78812 73.19797,-63.709365 h 17.84766 z M 194.49905,54.340077 135.38401,113.43844 120.52955,98.579775 179.64461,39.481429 Z"
                 inkscape:connector-curvature="0"
                 style="stroke-width:2.259197"
                 sodipodi:nodetypes="sccscccccccsccccssccscccccccc" />
              <path
                 inkscape:connector-curvature="0"
                 d="M 70.873189,81.755545 66.20143,77.083786 m 25.656209,25.656204 4.521428,4.52143 4.521893,4.52189 4.52164,4.52164 4.52247,4.52247 4.52288,4.52288 m -44.253849,-53.340444 4.847234,4.847234 4.847295,4.847294 9.693616,9.693615 4.847076,4.847076 4.847154,4.847155 4.847134,4.84713 4.8468,4.8468 4.84773,4.84773 4.84732,4.84732 m -41.052812,-50.139406 4.92529,4.92529 4.925199,4.9252 4.925469,4.925469 4.925615,4.925616 4.924759,4.92476 4.92504,4.925039 m 40.60802,40.608012 4.80507,4.80507 M 101.56843,85.190987 96.624528,80.247082 91.680522,75.303076 86.73681,70.359364 m 65.35242,65.352416 4.5585,4.5585 4.55896,4.55897 M 100.197,74.732957 95.374388,69.910341 90.551275,65.087228 m 35.449865,35.449862 3.71473,3.71473 3.7138,3.7138 m 35.46261,35.46262 -4.77992,-4.77992 -4.78041,-4.78042 m -67.425146,-76.511745 4.420567,4.420566 4.421019,4.421021 m 37.22485,37.224848 -3.71473,-3.714729 -3.7138,-3.713802 m 37.12639,37.126391 4.3594,4.3594 4.35984,4.35984 M 102.44476,58.807508 98.363251,54.726001 94.282759,50.645509 m 40.806261,40.806264 3.71473,3.714726 3.7138,3.713801 m 40.72202,40.72202 -4.07756,-4.07756 -4.07654,-4.07654 m -78.150238,-87.236838 3.916278,3.916283 3.91531,3.915308 m 42.2943,42.294297 -3.71473,-3.714726 -3.7138,-3.713802 m 42.17394,42.173938 3.86805,3.86805 3.86709,3.86709 m -81.48982,-90.57642 -3.79266,-3.79266 -3.79171,-3.791716 m 43.70943,43.709432 3.71472,3.714726 3.7138,3.713801 m 43.60384,43.603837 -3.79109,-3.79109 -3.79014,-3.79014 m -83.47939,-92.56599 3.76515,3.765145 3.7642,3.764209 m 44.471,44.470997 -3.71472,-3.714725 -3.7138,-3.7138 m 44.31706,44.317064 3.73448,3.73448 3.73355,3.73355 m -85.85679,-94.943393 -4.90236,-4.902362 m 43.51837,43.518374 3.71472,3.714725 3.7138,3.713801 m 43.40714,43.407125 -4.90956,-4.90955 m -86.07342,-95.160024 3.76554,3.765542 3.76461,3.764604 m 44.58927,44.589271 -3.71473,-3.714724 -3.7138,-3.7138 m 44.41835,44.418351 3.74207,3.74206 3.74113,3.74113 m -83.81517,-92.901762 -3.76235,-3.762356 -3.76142,-3.76142 m 43.98171,43.981711 3.71472,3.714724 3.7138,3.713799 m 43.87093,43.870934 -3.78304,-3.78305 -3.7821,-3.7821 m -82.25214,-91.338744 3.90346,3.903468 3.9025,3.902496 m 42.68396,42.683965 -3.71472,-3.714724 -3.7138,-3.713799 m 42.49969,42.499688 3.8918,3.8918 3.89082,3.89082 m -78.99488,-88.081473 -4.04831,-4.048311 -4.04731,-4.047305 m 41.3525,41.352495 3.71472,3.714723 3.7138,3.713799 m 41.24592,41.245922 -4.07991,-4.079915 -4.0789,-4.078901 M 136.63315,11.2165 l 4.32538,4.325376 4.3243,4.324299 m 38.12982,38.129821 -3.71472,-3.714723 -3.7138,-3.713798 m 37.9199,37.919897 4.34832,4.348317 4.34876,4.348765 m -69.29732,-78.383919 -4.63424,-4.634237 -4.63471,-4.634714 m 36.49361,36.493604 3.71472,3.714723 3.7138,3.713798 m 36.35551,36.355514 -4.69213,-4.692126 -4.6926,-4.692608 m -63.06456,-72.1511607 4.92195,4.9219497 4.92246,4.922457 m 64.6586,64.658609 -4.35745,-4.357456 -4.35755,-4.357546 -4.35729,-4.357287 m -54.05277,-63.1393717 3.97813,3.9781247 3.97713,3.977135 m 67.52292,67.522917 -4.38396,-4.383962 -4.38367,-4.383662 -4.38493,-4.384934 -4.38469,-4.384696 -4.38425,-4.384248 m -44.36043,-53.4470243 3.63972,3.6397143 m 71.30742,71.307415 -4.80643,-4.806422 -4.80648,-4.806482 -4.80582,-4.805825 -4.80618,-4.806173 -4.80626,-4.806265 -4.80635,-4.806342 -4.80632,-4.806325 -4.80599,-4.805992 -4.80692,-4.806911 -4.8065,-4.806508 m 28.62969,19.543088 -4.8149,-4.814898 -4.81539,-4.815392 -4.81512,-4.815123 -4.81601,-4.81601 -4.81645,-4.816446 m 40.40489,40.40489 4.0121,4.012103 4.0111,4.011104 m -34.43565,-43.52225 -4.75533,-4.755333 -4.75505,-4.755049 m 44.58598,44.585982 3.58808,3.588078 m 10.99703,-7.176171 0.20113,0.201121"
                 style="fill:none;stroke:#000000;stroke-width:3.7795279"
                 id="path154443"
                 sodipodi:nodetypes="cccccccccccccccccccccccccccccccccccccccccccccccccccccccccccccccccccccccccccccccccccccccccccccccccccccccccccccccccccccccccccccccccccccccccccccccccccccccccccccccccccccccccccccccccccccccccccccccccc" />
            </g>
          </g>
          <g
             id="g154196" />
          <g
             id="g154204" />
          <g
             id="g154208" />
        </g>
      </g>
      <g
         display="none"
         id="nyt_x5F_exporter_x5F_info"
         style="display:none" />
    </g>
  </g>
  <g
     id="g133785"
     transform="translate(0.2621133,0.32764162)" />
  <g
     id="g136338" />
  <defs
     id="defs136343">
    <marker
       style="overflow:visible"
       refY="-1.687441"
       refX="-4"
       orient="auto"
       id="CheckToolsAndOPMarker">
      <path
         id="path136340"
         style="fill:#000044; fill-rule:evenodd;stroke:none;"
         d=" m -4.588864,-1.687441 0.0,0.0 L -9.177728,0.0 c 0.73311,-0.996261 0.728882,-2.359329 0.0,-3.374882" />
    </marker>
  </defs>
  <defs
     id="defs136348">
    <marker
       style="overflow:visible"
       refY="-1.687441"
       refX="-4"
       orient="auto"
       id="DrawCurveMarker">
      <path
         id="path136345"
         style="fill:#000044; fill-rule:evenodd;stroke:none;"
         d="m -4.588864,-1.687441 0.0,0.0 L -9.177728,0.0 c 0.73311,-0.996261 0.728882,-2.359329 0.0,-3.374882" />
    </marker>
  </defs>
  <defs
     id="defs136353">
    <marker
       style="overflow:visible"
       refY="-1.687441"
       refX="4"
       orient="auto"
       id="DrawCurveMarker_r">
      <path
         id="path136350"
         style="fill:#000044; fill-rule:evenodd;stroke:none;"
         d="m 4.588864,-1.687441 0.0,0.0 L 9.177728,0.0 c -0.73311,-0.996261 -0.728882,-2.359329 0.0,-3.374882" />
    </marker>
  </defs>
  <defs
     id="defs136358">
    <marker
       style="overflow:visible"
       refY="-1.687441"
       refX="-4"
       orient="auto"
       id="InOutPathMarker">
      <path
         id="path136355"
         style="fill:#0072a7; fill-rule:evenodd;stroke:none;"
         d="m -4.588864,-1.687441 0.0,0.0 L -9.177728,0.0 c 0.73311,-0.996261 0.728882,-2.359329 0.0,-3.374882" />
    </marker>
  </defs>
  <g
     id="g142614" />
  <g
     id="g146102" />
</svg>
